<svg fill="none" height="32" width="154" xmlns="http://www.w3.org/2000/svg" xmlns:xlink="http://www.w3.org/1999/xlink"><clipPath id="a"><path d="m0 0h154v32h-154z"/></clipPath><clipPath id="b"><path d="m0 0h32v32h-32z" transform="translate(-.045)"/></clipPath><g clip-path="url(#a)" fill="#fff"><path d="m39.791 6.247h8.263a12.908 12.908 0 0 1 5.807 1.206 8.543 8.543 0 0 1 3.73 3.495 10.843 10.843 0 0 1 1.295 5.427 11.01 11.01 0 0 1 -1.284 5.46 8.464 8.464 0 0 1 -3.719 3.496 12.988 12.988 0 0 1 -5.829 1.206h-8.263zm7.895 16.047a6.074 6.074 0 0 0 4.467-1.474 6.03 6.03 0 0 0 1.474-4.467 5.974 5.974 0 0 0 -1.474-4.467 6.108 6.108 0 0 0 -4.467-1.451h-2.636v11.859zm27.09-1.843h-8.754c.07.766.43 1.476 1.004 1.988a3.552 3.552 0 0 0 2.234.603 7.102 7.102 0 0 0 3.997-1.296l1.296 3.35a8.365 8.365 0 0 1 -2.569 1.229c-.97.293-1.978.443-2.992.446a9.358 9.358 0 0 1 -4.232-.893 6.398 6.398 0 0 1 -2.747-2.568 7.694 7.694 0 0 1 -.96-3.92 7.917 7.917 0 0 1 .904-3.819 6.533 6.533 0 0 1 2.535-2.624 7.225 7.225 0 0 1 3.673-.938 6.254 6.254 0 0 1 4.802 1.976 7.56 7.56 0 0 1 1.787 5.316zm-8.81-2.468h4.466c-.111-1.69-.856-2.535-2.233-2.535s-2.122.846-2.233 2.535zm20.513-5.583h5.014l-6.32 14.148h-4.233l-6.22-14.148h5.36l3.116 7.973zm13.992 0h3.35v3.774h-3.35v10.396h-5.17v-10.418h-2.602v-3.752h2.601a5.918 5.918 0 0 1 1.942-4.467 9.056 9.056 0 0 1 5.405-1.708l1.753-.112.291 3.719-1.351.055a4.592 4.592 0 0 0 -2.234.492 1.706 1.706 0 0 0 -.636 1.53v.49zm7.872 13.478a6.513 6.513 0 0 1 -2.736-2.58 7.698 7.698 0 0 1 -.96-3.919 7.624 7.624 0 0 1 .96-3.908 6.466 6.466 0 0 1 2.725-2.546 9.95 9.95 0 0 1 8.241 0 6.466 6.466 0 0 1 2.725 2.546 7.624 7.624 0 0 1 .96 3.908 7.698 7.698 0 0 1 -.96 3.92 6.535 6.535 0 0 1 -2.781 2.579 9.77 9.77 0 0 1 -8.218 0zm6.845-6.499c0-2.382-.912-3.573-2.735-3.573-1.824 0-2.736 1.191-2.736 3.573s.912 3.573 2.736 3.573c1.823 0 2.735-1.191 2.735-3.573zm7.404 7.169v-20.301h5.092v20.301zm7.973-21.25h5.36v4.634h-5.36zm.112 21.217v-14.115h5.125v14.148zm11.144-.637a6.507 6.507 0 0 1 -2.736-2.58 7.688 7.688 0 0 1 -.96-3.919 7.615 7.615 0 0 1 .96-3.908 6.46 6.46 0 0 1 2.725-2.546 9.95 9.95 0 0 1 8.241 0 6.464 6.464 0 0 1 2.724 2.546 7.615 7.615 0 0 1 .961 3.908 7.7 7.7 0 0 1 -.961 3.92 6.531 6.531 0 0 1 -2.758 2.579 9.77 9.77 0 0 1 -8.218 0zm6.845-6.499c0-2.382-.912-3.573-2.736-3.573-1.823 0-2.736 1.191-2.736 3.573s.913 3.573 2.736 3.573c1.824 0 2.733-1.191 2.725-3.573z"/><g clip-path="url(#b)"><path d="m30.657 17.62a14.219 14.219 0 0 1 -12.84 14.275s-9.218.236-12.269 0a3.186 3.186 0 0 1 -2.556-1.928c.429.189.888.299 1.357.325.998.09 2.702.134 5.08.134 3.487 0 7.289-.1 7.322-.1h.068a14.97 14.97 0 0 0 9.88-4.924 15.7 15.7 0 0 0 3.958-8.657z"/><path d="m29.535 14.491a14.22 14.22 0 0 1 -12.862 14.264s-9.218.236-12.268 0a3.432 3.432 0 0 1 -2.905-3.475v-21.723a3.431 3.431 0 0 1 2.972-3.442c3.061-.258 12.268 0 12.268 0a14.22 14.22 0 0 1 12.795 14.375z"/></g></g></svg>